<svg style="position:absolute;width:0;height:0" xmlns="http://www.w3.org/2000/svg" overflow="hidden"><defs><symbol id="icon-cancel" viewBox="0 0 32 32"><title>cancel</title><path d="M14.47 15.893L.306 30.057a1.007 1.007 0 1 0 1.424 1.425l14.271-14.27 14.271 14.27c.197.197.454.295.712.295s.515-.098.712-.295a1.007 1.007 0 0 0 0-1.425L17.533 15.893 31.706 1.719A1.007 1.007 0 1 0 30.282.294l-14.279 14.28L1.722.294A1.007 1.007 0 0 0 .298 1.719l14.174 14.174z"/></symbol><symbol id="icon-menu" viewBox="0 0 32 32"><title>menu</title><path d="M1.208 8.151h29.585a1.208 1.208 0 0 0 0-2.416H1.208a1.208 1.208 0 0 0 0 2.416zm0 9.057h29.585a1.208 1.208 0 0 0 0-2.416H1.208a1.208 1.208 0 0 0 0 2.416zm0 9.056h29.585a1.208 1.208 0 0 0 0-2.416H1.208a1.208 1.208 0 0 0 0 2.416z"/></symbol></defs></svg>