<svg style="position:absolute;width:0;height:0" xmlns="http://www.w3.org/2000/svg" overflow="hidden"><defs><symbol id="fb" viewBox="0 0 16 32"><path d="M15.4 0h-3.84c-4.32 0-7.1 3.1-7.1 7.88v3.62H.6a.62.62 0 0 0-.6.662v-.002 5.26a.64.64 0 0 0 .598.58H4.46v13.301c0 .34.264.617.598.639H10a.64.64 0 0 0 .6-.639v-.022.001V18h4.62a.64.64 0 0 0 .6-.639v-.022.001-5.18a.678.678 0 0 0-.18-.46.583.583 0 0 0-.419-.2H10.7V8.42c0-1.48.32-2.24 2.1-2.24h2.6a.64.64 0 0 0 .6-.639V.66l.001-.04a.62.62 0 0 0-.6-.62H15.4z"/></symbol><symbol id="youtube" viewBox="0 0 46 32"><path d="M44 3.08C42.8.84 41.44.42 38.68.26S29 0 23 0 10 0 7.32.26 3.2.84 2 3.08 0 9.18 0 16c0 6.78.66 10.66 2 12.88s2.62 2.66 5.36 2.84S17 32 23 32s12.92 0 15.68-.26 4.12-.6 5.36-2.84S46 22.78 46 16c0-6.82-.66-10.68-2-12.92zM17.24 24.72V7.28L31.62 16z"/></symbol></defs></svg>