<svg aria-hidden="true" style="position: absolute; width: 0; height: 0; overflow: hidden;" version="1.1" xmlns="http://www.w3.org/2000/svg" xmlns:xlink="http://www.w3.org/1999/xlink">
<defs>
<symbol id="fb" viewBox="0 0 16 32">

<path d="M15.4 0h-3.84c-4.32 0-7.1 3.1-7.1 7.88v3.62h-3.86c-0.334 0.010-0.601 0.284-0.601 0.62 0 0.014 0 0.028 0.001 0.042l-0-0.002v5.26c0.030 0.314 0.283 0.561 0.598 0.58l0.002 0h3.86v13.28c-0 0.006-0 0.014-0 0.021 0 0.34 0.264 0.617 0.598 0.639l0.002 0h4.94c0.336-0.021 0.6-0.299 0.6-0.639 0-0.007-0-0.015-0-0.022l0 0.001v-13.28h4.62c0.336-0.021 0.6-0.299 0.6-0.639 0-0.007-0-0.015-0-0.022l0 0.001v-5.18c-0-0.178-0.069-0.339-0.18-0.46l0 0c-0.103-0.118-0.252-0.194-0.419-0.2l-0.001-0h-4.52v-3.080c0-1.48 0.32-2.24 2.1-2.24h2.6c0.336-0.022 0.6-0.299 0.6-0.639 0-0 0-0.001 0-0.001v0-4.88c0.001-0.012 0.001-0.026 0.001-0.040 0-0.336-0.267-0.609-0.6-0.62l-0.001-0z"></path>
</symbol>
<symbol id="youtube" viewBox="0 0 46 32">

<path d="M44 3.080c-1.2-2.24-2.56-2.66-5.32-2.82s-9.68-0.26-15.68-0.26-13 0-15.68 0.26-4.12 0.58-5.32 2.82-2 6.1-2 12.92v0c0 6.78 0.66 10.66 2 12.88s2.62 2.66 5.36 2.84 9.64 0.28 15.64 0.28 12.92 0 15.68-0.26 4.12-0.6 5.36-2.84 1.96-6.12 1.96-12.9v0c0-6.82-0.66-10.68-2-12.92zM17.24 24.72v-17.44l14.38 8.72z"></path>
</symbol>
</defs>
</svg>
